<?xml version="1.0" encoding="utf-8"?>
<!-- Svg Vector Icons : http://www.onlinewebfonts.com/icon -->
<!DOCTYPE svg PUBLIC "-//W3C//DTD SVG 1.1//EN" "http://www.w3.org/Graphics/SVG/1.1/DTD/svg11.dtd">
<svg version="1.1" xmlns="http://www.w3.org/2000/svg" xmlns:xlink="http://www.w3.org/1999/xlink" x="0px" y="0px" viewBox="0 0 1000 1000" enable-background="new 0 0 1000 1000" xml:space="preserve">
<metadata> Svg Vector Icons : http://www.onlinewebfonts.com/icon </metadata>
<g><path d="M611.4,34.4c92-46.8,206.7-25.7,276.3,58.1c66.9,80.5,71.4,193.8,18.5,278.4c-13.2,0.1-27-2.3-41.2-6.6c-56-17.1-114.7-64.1-161.8-122.1c-47.3-58.2-82-126-90.1-184.6C612.1,49.6,611.5,41.9,611.4,34.4L611.4,34.4L611.4,34.4z M146.8,678c-0.7,41.6,19.8,64.6,59,71l431.9-297.1C578.1,413.3,527.3,349.7,501,282.7L146.8,678L146.8,678L146.8,678z M160.9,772.3c-35.9,38.4-46.8,78.1-38.3,107.7c3.5,12.1,10.4,22.5,20.2,30.3c10.4,8.3,24.5,13.8,41.6,15.3c58.5,5.1,146-33.6,248.3-150.9c102.8-118,195.4-173.9,271.3-187.5c45.9-8.2,86.3-1.4,119.7,16.6c33.4,18,59.4,47,76.7,83.1c27,56.4,32.6,130.2,12,205.2l-60-17.2c16.3-59.8,12.6-117.4-7.9-160c-11.5-24-28.4-43.1-49.8-54.6c-21.5-11.5-48.3-15.8-79.9-10.1c-63.2,11.4-143,61-235.4,167C361.9,952.1,254.6,995.9,179.4,989.4c-29.6-2.6-54.8-12.8-74.6-28.4c-20.4-16.1-34.7-37.9-41.9-63.2c-14.3-50.1,0.3-113.2,53.1-169.7L160.9,772.3L160.9,772.3L160.9,772.3z M871.5,412c-69.8-23.6-139.6-79.4-194.4-146.8c-49.9-61.3-88.3-133.3-103.8-200.3c-41,51.7-57.7,118-48.6,181.6c25.1,77.2,90.1,157.1,162.7,191.2C748.2,455.7,815.3,447.7,871.5,412L871.5,412z"/></g>
</svg>