<?xml version='1.0' encoding='utf-8'?>
<svg xmlns="http://www.w3.org/2000/svg" width="614" height="542" viewBox="0 0 614 542" fill="none"> <g clip-path="url(#clip0)"> <path d="M563.712 308.063C557.44 443.634 436.786 482.229 286.503 485.122C57.3406 489.548 30.6641 416.769 30.6641 281.057C30.6641 145.344 80.6258 5.2198 213.086 15.5458C276.017 20.4535 347.448 124.72 400.929 159.315C474.814 207.115 568.437 206.222 563.712 308.063Z" fill="#D4E7FF"/> <path opacity="0.42" d="M27.1457 364.842C27.1457 364.842 74.8796 344.019 96.8168 276.149C118.768 208.264 158.542 151.103 233.931 147.273C309.307 143.429 390.84 148.152 417.786 107.699C444.718 67.2466 387.151 66.3247 386.342 137.302C385.533 208.278 509.593 338.445 516.078 439.521C522.563 540.596 438.801 520.54 334.735 479.902C230.668 439.279 122.032 519.674 54.3188 489.604C-13.3941 459.52 -10.4569 395.21 27.1457 364.842Z" stroke="#4570B4" stroke-miterlimit="10"/> <path opacity="0.42" d="M37.2761 286.177C52.3932 286.177 64.6479 273.927 64.6479 258.816C64.6479 243.705 52.3932 231.455 37.2761 231.455C22.1591 231.455 9.9043 243.705 9.9043 258.816C9.9043 273.927 22.1591 286.177 37.2761 286.177Z" fill="#4570B4"/> <path opacity="0.42" d="M61.9785 283.509C75.6213 269.871 75.6213 247.761 61.9785 234.123C48.3357 220.486 26.2164 220.486 12.5736 234.123C-1.06923 247.761 -1.06924 269.871 12.5736 283.509C26.2164 297.146 48.3357 297.146 61.9785 283.509Z" stroke="#4570B4" stroke-miterlimit="10"/> <path opacity="0.42" d="M557.157 308.063C574.79 308.063 589.084 293.775 589.084 276.149C589.084 258.523 574.79 244.235 557.157 244.235C539.525 244.235 525.23 258.523 525.23 276.149C525.23 293.775 539.525 308.063 557.157 308.063Z" fill="#4570B4"/> <path opacity="0.42" d="M334.181 190.066L325.568 203.754H343.916L334.181 190.066Z" stroke="#4570B4" stroke-miterlimit="10"/> <path opacity="0.42" d="M212.647 62.7075L201.125 80.9765H225.645L212.647 62.7075Z" fill="#4570B4"/> <path opacity="0.42" d="M298.933 99.6144C317.318 99.6144 332.222 84.7164 332.222 66.3387C332.222 47.961 317.318 33.063 298.933 33.063C280.548 33.063 265.645 47.961 265.645 66.3387C265.645 84.7164 280.548 99.6144 298.933 99.6144Z" fill="#4570B4"/> <path d="M298.266 62.2254L296.393 58.651C295.187 56.3532 296.081 53.5164 298.38 52.3108C299.94 51.4881 300.551 49.5591 299.728 47.9846L296.932 42.6231C296.109 41.0628 294.18 40.4529 292.604 41.2756L290.164 42.5522C287.865 43.7578 285.992 45.6301 284.8 47.9279L284.091 49.3037C282.856 51.6725 282.87 54.4951 284.105 56.8638L289.341 66.8778L292.831 73.5584L298.067 83.5724C299.302 85.9411 301.615 87.5581 304.268 87.8985L305.801 88.0971C308.369 88.4375 310.98 87.9694 313.279 86.7638L315.719 85.4872C317.28 84.6645 317.89 82.7355 317.082 81.1611L314.286 75.7995C313.463 74.2393 311.533 73.6294 309.958 74.4378C307.66 75.6435 304.822 74.7499 303.616 72.4521L301.743 68.8777L298.266 62.2254Z" fill="white"/> <path opacity="0.42" d="M542.427 441.691C542.427 445.492 539.348 448.584 535.531 448.584C531.728 448.584 528.635 445.506 528.635 441.691C528.635 437.875 531.714 434.797 535.531 434.797C539.348 434.811 542.427 437.889 542.427 441.691Z" stroke="#4570B4" stroke-miterlimit="10"/> <path opacity="0.42" d="M130.404 77.3031C137.442 77.3031 143.147 71.6005 143.147 64.5659C143.147 57.5313 137.442 51.8286 130.404 51.8286C123.367 51.8286 117.662 57.5313 117.662 64.5659C117.662 71.6005 123.367 77.3031 130.404 77.3031Z" fill="white"/> <path opacity="0.42" d="M478.234 254.277C485.272 254.277 490.977 248.574 490.977 241.54C490.977 234.505 485.272 228.802 478.234 228.802C471.197 228.802 465.492 234.505 465.492 241.54C465.492 248.574 471.197 254.277 478.234 254.277Z" stroke="#4570B4" stroke-miterlimit="10"/> <path opacity="0.42" d="M77.078 326.828C83.9352 326.828 89.494 321.272 89.494 314.417C89.494 307.563 83.9352 302.006 77.078 302.006C70.2209 302.006 64.6621 307.563 64.6621 314.417C64.6621 321.272 70.2209 326.828 77.078 326.828Z" fill="#4570B4"/> <path opacity="0.42" d="M557.157 298.162C569.32 298.162 579.179 288.307 579.179 276.149C579.179 263.991 569.32 254.135 557.157 254.135C544.994 254.135 535.135 263.991 535.135 276.149C535.135 288.307 544.994 298.162 557.157 298.162Z" stroke="white" stroke-miterlimit="10"/> <path opacity="0.42" d="M538.439 67.6152H385.816C379.288 67.6152 374.01 72.9059 374.01 79.4163V171.57C374.01 178.095 379.303 183.371 385.816 183.371H483.156V206.605C483.156 210.491 487.697 212.604 490.677 210.108L522.448 183.371H538.439C544.967 183.371 550.245 178.08 550.245 171.57V79.4305C550.245 72.9059 544.967 67.6152 538.439 67.6152Z" fill="#4570B4"/> <path d="M577.092 79.1184C577.092 92.8911 573.133 105.728 566.308 116.508C565.229 118.238 564.066 119.926 562.831 121.543C550.359 137.911 530.848 148.45 508.925 148.45C497.672 148.45 487.059 145.684 477.708 140.762C455.756 129.245 440.758 105.955 440.758 79.1184C440.758 75.9837 440.956 72.8916 441.368 69.8562C445.809 35.9422 474.373 9.77271 508.925 9.77271C546.57 9.77271 577.092 40.8215 577.092 79.1184Z" fill="#68A8DE"/> <path d="M562.831 121.529C550.358 137.897 530.847 148.436 508.924 148.436C497.672 148.436 487.058 145.67 477.707 140.748C478.984 137.557 482.9 129.089 489.839 124.351C498.495 118.422 524.802 114.862 543.05 116.422C553.82 117.33 559.766 119.727 562.831 121.529Z" fill="#C6606C"/> <path d="M478.232 43.942L478.942 77.7993C478.942 77.7993 480.02 112.394 508.173 111.784C536.339 111.174 542.284 68.4379 542.284 68.4379L537.857 42.5095C537.857 42.5095 504.937 20.5526 478.232 43.942Z" fill="white"/> <path d="M508.371 103.642C508.371 103.642 510.457 116.734 507.307 121.018C504.156 125.301 513.578 140.166 513.578 140.166L535.388 120.167C535.388 120.167 533.941 105.501 534.338 92.6641L508.371 103.642Z" fill="white"/> <path d="M478.39 51.7149C478.39 51.7149 486.492 54.2964 495.162 53.5304C503.832 52.7645 506.868 49.2752 506.868 49.2752C506.868 49.2752 509.763 50.495 514.474 50.495C519.185 50.495 522.69 48.2114 522.69 48.2114C522.69 48.2114 519.497 53.6865 520.859 60.6792C522.222 67.6719 526.791 69.4875 526.791 69.4875C526.791 69.4875 529.685 62.4947 534.694 62.4947C539.703 62.4947 541.534 67.8138 540.242 74.8065C538.951 81.7992 530.891 83.4729 530.891 83.4729L534.325 92.6783C534.325 92.6783 547.309 78.7638 548.827 63.4167C550.345 48.0696 542.598 43.5023 542.598 43.5023C542.598 43.5023 543.251 32.0984 528.025 28.1552C512.8 24.1979 502.768 24.5099 491.359 31.0488C491.359 31.0488 481.781 23.7582 473.721 28.1552C465.662 32.5664 467.946 41.9846 471.891 44.4101C471.891 44.4101 464.143 46.3817 465.804 55.9559C467.478 65.5301 478.645 64.7784 478.645 64.7784L478.39 51.7149Z" fill="#00496A"/> <path d="M508.172 111.784C508.172 111.784 528.648 106.366 530.662 92.6782C530.662 92.6782 535.742 112.522 508.172 119.259C508.172 119.259 508.995 113.359 508.172 111.784Z" fill="#D9D9D9"/> <path opacity="0.42" d="M613.567 36.9976C616.406 19.6338 604.626 3.257 587.255 0.419036C569.884 -2.41893 553.501 9.3566 550.662 26.7204C547.823 44.0843 559.603 60.461 576.974 63.299C594.345 66.1369 610.728 54.3614 613.567 36.9976Z" fill="#4570B4"/> <path d="M578.527 40.4385L578.414 38.9634C578.073 35.8854 579.095 32.5238 581.947 29.1055C584.515 26.0843 585.934 23.8574 585.934 21.2901C585.934 18.3823 584.104 16.4391 580.514 16.3824C578.456 16.3824 576.186 17.0632 574.753 18.1554L573.391 14.5668C575.278 13.2052 578.527 12.2832 581.55 12.2832C588.105 12.2832 591.071 16.3257 591.071 20.666C591.071 24.5382 588.9 27.3325 586.161 30.5806C583.65 33.5451 582.742 36.0556 582.912 38.9634L582.969 40.4385H578.527ZM577.279 48.4241C577.279 46.3107 578.698 44.8355 580.698 44.8355C582.699 44.8355 584.061 46.3107 584.061 48.4241C584.061 50.424 582.756 51.9559 580.642 51.9559C578.641 51.9559 577.279 50.424 577.279 48.4241Z" fill="white"/> <path d="M527.923 406.457C527.824 406.783 527.696 407.053 527.54 407.266C524.844 411.166 522.006 414.953 519.012 418.613H518.998C421.6 538.255 171.139 538.255 171.139 538.255V395.465H527.54C527.54 395.465 528.916 403.237 527.923 406.457Z" fill="#A6D6F7"/> <path d="M527.923 406.457C527.824 406.784 527.696 407.053 527.54 407.266C524.844 411.166 522.006 414.954 519.012 418.613H518.998L171.139 458.186V406.457H527.923Z" fill="#8CC6E5"/> <path d="M334.732 294.46L317.492 312.729C317.492 312.729 313.959 309.098 309.73 303.538C307.715 300.871 305.544 297.765 303.543 294.404C300.918 290.006 298.563 285.184 297.215 280.347C292.674 264.106 294.533 229.852 294.533 229.852C294.533 229.852 301.883 230.646 304.395 233.441C318.542 249.185 334.732 294.46 334.732 294.46Z" fill="#FF6A76"/> <path d="M269.927 354.133H146.477L135.196 259.241C133.905 248.376 141.482 238.49 152.138 237.1L159.56 236.136L253.892 223.881L269.927 354.133Z" fill="#4570B4"/> <path d="M239.788 227.029C239.788 227.029 199.617 239.937 197.432 243.27C195.261 246.589 214.119 305.439 214.119 305.439L210.486 354.147H292.29L296.419 307.666C296.419 307.666 305.174 298.063 305.713 282.191C306.252 266.319 294.532 229.852 294.532 229.852L265.996 226.107L239.788 227.029Z" fill="#FF6A76"/> <path d="M251.281 135.613C251.281 135.613 223.285 123.571 203.405 151.656C183.525 179.74 204.115 223.881 204.115 223.881C204.115 223.881 254.843 217.257 268.876 215.909C282.91 214.562 285.762 214.562 285.762 214.562C285.762 214.562 292.999 170.208 277.56 153.897C262.108 137.599 251.281 135.613 251.281 135.613Z" fill="#00496A"/> <path d="M261.697 245.142L238.057 228.944C238.057 228.944 240.001 222.746 239.518 216.547C239.405 215.172 239.178 213.796 238.78 212.491C238.582 211.838 238.34 211.2 238.057 210.576L261.697 209.399C261.697 209.399 261.853 211.314 262.293 213.782C262.647 215.711 263.172 217.98 263.967 219.952C264.534 221.413 265.244 222.703 266.124 223.597C269.742 227.271 261.697 245.142 261.697 245.142Z" fill="white"/> <path d="M263.968 219.952C260.931 220.051 247.891 220.249 239.519 216.547C239.406 215.172 239.179 213.796 238.781 212.491C238.781 212.491 254.716 214.434 262.293 213.781C262.648 215.71 263.173 217.98 263.968 219.952Z" fill="#D9D9D9"/> <path d="M275.008 146.266L278.953 178.832C278.953 178.832 284.118 212.391 257.03 215.64C229.942 218.902 220.832 187.598 220.832 187.598L217.625 153.031C217.611 153.031 246.189 127.486 275.008 146.266Z" fill="white"/> <path d="M262.649 148.79C262.649 148.79 259.102 157.499 247.452 163.683C237.122 169.158 227.43 170.676 227.43 170.676C227.43 170.676 225.869 179.853 220.648 185.598C220.648 185.598 211.595 168.435 215.298 153.655C218.987 138.876 238.073 131.741 254.83 133.245C271.574 134.748 277.605 140.89 279.833 150.648C282.06 160.407 278.343 173.598 278.343 173.598C278.343 173.598 274.753 151.84 262.649 148.79Z" fill="#00496A"/> <path d="M217.61 178.421C217.61 178.421 214.389 153.655 233.488 140.507C245.932 131.94 261.598 134.223 261.598 134.223C261.598 134.223 251.722 126.791 232.268 135.372C212.814 143.954 211.821 163.357 213.793 178.421H217.61Z" fill="#68A8DE"/> <path d="M174.63 354.132H146.463L135.182 259.241C133.891 248.376 141.468 238.49 152.125 237.1L159.546 236.135L174.63 354.132Z" fill="#375C93"/> <path d="M244.046 209.682C231.119 209.682 221.527 200.69 221.102 200.278L222.833 198.392C222.932 198.491 233.418 208.278 246.529 206.973L246.771 209.54C245.848 209.64 244.94 209.682 244.046 209.682Z" fill="#375C93"/> <path d="M564.291 407.266H176.957C166.598 407.266 156.722 402.996 149.84 395.521L128.57 372.458C120.312 363.508 126.882 349.338 139.283 349.338H517.409C530.478 349.338 543.035 354.246 552.429 363.026L574.267 383.408C583.561 392.075 577.204 407.266 564.291 407.266Z" fill="#68A8DE"/> <path d="M387.66 235.299C386.964 235.682 385.872 236.32 384.68 237.029L384.453 236.66C388 234.405 393.236 230.873 392.882 230.022C392.342 228.732 389.689 229.412 387.716 230.476C386.581 231.1 384.51 232.334 382.509 233.54L382.367 233.313C385.886 231.086 391.746 227.214 391.363 226.306C390.824 225.015 388.171 225.696 386.198 226.76C384.95 227.441 382.58 228.859 380.409 230.164L380.239 229.895C383.729 227.639 388.27 224.519 387.944 223.725C387.404 222.434 384.751 223.115 382.779 224.178C380.111 225.625 372.377 230.405 372.377 230.405L366.744 232.462C367.965 230.49 371.384 223.186 369.781 223.186C368.177 223.186 363.779 228.278 361.948 233.526C360.586 237.455 360.416 240.958 360.416 242.462L311.021 305.198C311.021 305.198 312.185 307.027 313.959 309.481C319.081 316.559 331.015 318.119 337.911 312.744C343.36 308.488 347.645 302.871 351.859 297.127C359.791 286.319 371.611 257.624 374.378 250.759L385.56 240.292C388.625 238.306 392.527 235.625 392.243 234.916C391.761 233.767 389.405 234.363 387.66 235.299Z" fill="white"/> <path d="M257.724 364.6C257.724 364.6 263.499 368.856 265.784 374.628C268.068 380.401 253.467 384.118 229.103 375.848C211.38 369.834 241.306 351.367 257.724 364.6Z" fill="#00496A"/> <path d="M248.558 211.243H245.294C244.13 211.243 243.18 210.278 243.18 209.101V207.087C243.18 205.909 244.13 204.945 245.294 204.945H248.558C249.721 204.945 250.672 205.909 250.672 207.087V208.094V209.101C250.658 210.278 249.721 211.243 248.558 211.243Z" fill="#00496A"/> <path d="M231.574 185.768C233.376 194.789 228.679 203.385 221.073 204.959C213.468 206.533 205.848 200.491 204.031 191.47C202.229 182.449 206.926 173.853 214.532 172.279C222.137 170.705 229.771 176.747 231.574 185.768Z" fill="#4570B4"/> <path d="M223.91 187.357C224.974 192.676 222.207 197.754 217.723 198.676C213.239 199.597 208.741 196.037 207.677 190.718C206.613 185.399 209.38 180.321 213.864 179.399C218.348 178.463 222.846 182.038 223.91 187.357Z" fill="#68A8DE"/> <path d="M204.045 239.71C204.045 239.71 197.149 240.745 194.339 245.199C182.335 264.291 158.979 322.687 158.979 322.687L181.512 332.644C181.512 332.644 211.14 298.333 213.864 282.007C216.588 265.681 204.045 239.71 204.045 239.71Z" fill="#FF6A76"/> <path d="M179.382 327.665L225.627 357.735L219.099 372.217C219.099 372.217 177.481 357.267 164.682 347.594C151.897 337.906 158.964 322.687 158.964 322.687C158.964 322.687 166.058 321.85 179.382 327.665Z" fill="white"/> <path d="M224.28 357.267C224.28 357.267 239.875 356.53 245.494 356.53C251.113 356.53 260.904 365.749 259.825 368.699C258.733 371.65 247.494 362.614 247.494 362.614L246.856 363.82C246.856 363.82 256.831 369.905 257.37 372.217C257.91 374.529 255.654 374.16 252.39 372.77C249.126 371.38 244.231 368.246 244.231 368.246L243.692 368.898C243.692 368.898 253.128 374.713 253.128 376.827C253.128 378.955 246.331 376.543 241.336 373.224L240.698 374.245C240.698 374.245 246.87 377.38 247.324 379.408C247.778 381.437 244.415 380.614 240.698 378.855C236.98 377.096 233.532 376.912 228.722 376.174C223.911 375.437 218.207 371.877 218.207 371.877L224.28 357.267Z" fill="white"/> <path d="M511.01 272.929L488.832 384.117H324.516L346.566 273.567C347.035 271.227 349.05 269.553 351.391 269.553H508.3C510.045 269.553 511.365 271.184 511.01 272.929Z" fill="#4570B4"/> <path d="M324.514 384.117L279.377 369.437C277.787 368.912 276.709 367.437 276.709 365.749C276.709 363.607 278.44 361.877 280.583 361.877H328.969L324.514 384.117Z" fill="#00496A"/> <path d="M206.045 244.22C206.045 244.22 216.148 272.787 210.032 292.404C210.032 292.404 230.692 269.454 206.045 244.22Z" fill="#C6606C"/> <path d="M309.728 303.538C307.714 300.871 305.542 297.765 303.542 294.403C307.714 278.021 298.008 241.54 298.008 241.54C319.278 268.645 313.347 293.822 309.728 303.538Z" fill="#C6606C"/> <path d="M356.457 276.149L488.832 384.117H337.896L356.457 276.149Z" fill="#375C93"/> <path d="M436.018 344.945C442.758 342.173 445.974 334.464 443.201 327.726C440.428 320.989 432.716 317.774 425.975 320.546C419.235 323.318 416.02 331.027 418.793 337.765C421.566 344.502 429.278 347.717 436.018 344.945Z" fill="#A6D6F7"/> <path d="M239.364 222.42L261.698 245.128C261.698 245.128 257.825 250.603 251.382 250.462C244.94 250.305 241.308 242.121 239.492 237.852C237.661 233.583 233.943 228.93 233.943 228.93L239.364 222.42Z" fill="#FFA9B3"/> <path d="M261.697 245.143C261.697 245.143 267.458 248.646 273.077 246.206C278.696 243.781 277.178 240.065 275.206 236.136C273.233 232.221 271.105 225.228 271.105 225.228L264.691 221.54C264.691 221.54 265.826 236.476 261.697 245.143Z" fill="#FFA9B3"/> <path d="M296.135 289.014L239.859 294.46C239.859 294.46 252.474 303.51 271.9 300.772C291.325 298.035 296.135 289.014 296.135 289.014Z" fill="#C6606C"/> <path opacity="0.42" d="M170.345 106.096H68.5772C62.0925 106.096 56.8281 111.359 56.8281 117.841V144.805C56.8281 151.287 62.0925 156.549 68.5772 156.549H154.311L182.094 172.605V156.549V148.79V117.841C182.094 111.359 176.83 106.096 170.345 106.096Z" fill="#4570B4"/> <path d="M64.6465 118.295H170.657" stroke="white" stroke-miterlimit="10" stroke-linecap="round" stroke-linejoin="round"/> <path d="M64.6465 131.23H170.657" stroke="white" stroke-miterlimit="10" stroke-linecap="round" stroke-linejoin="round"/> <path d="M64.6465 144.167H170.657" stroke="white" stroke-miterlimit="10" stroke-linecap="round" stroke-linejoin="round"/> <path d="M176.177 419.634C178.845 397.621 161.462 400.926 149.571 412.542C137.681 424.159 126.031 417.677 139.213 395.975C152.395 374.274 162.044 367.607 160.228 356.686C158.397 345.764 148.876 350.544 132.388 359.622C115.899 368.7 131.48 344.984 130.231 322.488C128.982 299.992 106.634 311.226 104.761 330.176C102.888 349.111 111.345 370.317 100.49 366.118C89.6486 361.905 83.0788 336.757 73.217 348.629C63.3552 360.501 101.057 400.77 99.7942 412.925C98.5313 425.081 71.4007 388.032 63.6106 400.231C55.8205 412.429 89.5351 493.874 118.723 491.59C155.801 488.696 173.509 441.648 176.177 419.634Z" fill="#C6606C"/> <path d="M116.083 332.828C116.083 332.828 111.429 358.303 113.288 390.6C115.147 422.911 119.375 504.185 119.375 504.185" stroke="#AA4451" stroke-miterlimit="10"/> <path d="M84.3984 364.841C84.3984 364.841 105.825 390.259 113.601 395.862C113.601 395.862 141.271 369.21 146.549 364.841" stroke="#AA4451" stroke-miterlimit="10"/> <path d="M71.7422 415.72C71.7422 415.72 103.953 448.116 116.553 450.258L163.946 418.5" stroke="#AA4451" stroke-miterlimit="10"/> <path d="M106.066 479.094C106.066 479.094 120.029 448.229 112.509 431.648C104.988 415.067 94.2039 424.797 90.8126 438.017C87.4213 451.236 76.4811 451.648 76.4811 430.811C76.4811 409.975 80.4116 401.167 74.4661 394.287C68.5207 387.408 63.8807 394.812 56.1757 408.216C48.4707 421.62 49.2937 398.33 38.8218 383.068C28.3498 367.806 17.4664 385.224 24.2206 399.323C30.9891 413.408 45.9733 424.684 36.5656 426.358C27.1579 428.031 11.8189 413.166 9.96004 425.705C8.10119 438.244 51.7485 450.428 56.0338 459.491C60.3333 468.555 25.4977 454.13 25.2281 466.016C24.9585 477.902 65.4983 498.753 83.8597 495.646C102.221 492.54 106.066 479.094 106.066 479.094Z" fill="#FF6A76"/> <path d="M32.5078 392.33C32.5078 392.33 85.648 477.675 96.8295 504.185" stroke="#AA4451" stroke-miterlimit="10"/> <path d="M23.7949 432.84L61.1704 439.506L68.8612 407.379" stroke="#AA4451" stroke-miterlimit="10"/> <path d="M43.5469 471.179L83.4765 478.087L99.9365 441.847" stroke="#AA4451" stroke-miterlimit="10"/> <path d="M82.3262 504.185H149.855L144.051 538.255H89.3642L82.3262 504.185Z" fill="#375C93"/> <path d="M150.678 513.604H82.1135C79.5877 513.604 77.5586 511.561 77.5586 509.05V505.434C77.5586 502.909 79.6019 500.88 82.1135 500.88H150.678C153.204 500.88 155.233 502.923 155.233 505.434V509.05C155.247 511.561 153.204 513.604 150.678 513.604Z" fill="#4570B4"/> <path opacity="0.42" d="M394.797 541.986C420.689 541.986 441.679 521.004 441.679 495.122C441.679 469.239 420.689 448.258 394.797 448.258C368.904 448.258 347.914 469.239 347.914 495.122C347.914 521.004 368.904 541.986 394.797 541.986Z" fill="#4570B4"/> <path d="M424.255 477.817H365.325C363.708 477.817 362.402 479.122 362.402 480.739V513.192C362.402 514.809 363.708 516.114 365.325 516.114H424.255C425.873 516.114 427.178 514.809 427.178 513.192V480.739C427.178 479.122 425.873 477.817 424.255 477.817ZM425.135 482.498L397.465 500.583C397.224 500.739 396.954 500.809 396.685 500.809C396.443 500.809 396.202 500.753 395.989 500.625L363.765 482.54C363.083 482.157 362.842 481.292 363.225 480.611C363.608 479.931 364.474 479.689 365.155 480.072L396.642 497.732L423.588 480.115C424.241 479.689 425.121 479.874 425.546 480.526C425.972 481.193 425.787 482.072 425.135 482.498Z" fill="white"/> <path d="M430.996 490.072C440.596 490.072 448.378 482.293 448.378 472.697C448.378 463.101 440.596 455.321 430.996 455.321C421.396 455.321 413.613 463.101 413.613 472.697C413.613 482.293 421.396 490.072 430.996 490.072Z" fill="#FFA9B3"/> </g> <defs> <clipPath id="clip0"> <rect width="614" height="542" fill="white"/> </clipPath> </defs> </svg>