<?xml version='1.0' encoding='utf-8'?>
<svg xmlns="http://www.w3.org/2000/svg" version="1.1" id="Camada_1" x="0px" y="0px" viewBox="0 0 1600 1600" style="enable-background:new 0 0 1600 1600;"> <style type="text/css"> .st0{fill-rule:evenodd;clip-rule:evenodd;fill:#FFFFFF;} .st1{fill:#1C114D;} .st2{fill-rule:evenodd;clip-rule:evenodd;fill:#FFE4B3;stroke:#1C114D;stroke-width:6.4536;stroke-miterlimit:22.9256;} .st3{fill-rule:evenodd;clip-rule:evenodd;fill:#33B8A6;stroke:#1C114D;stroke-width:6.4536;stroke-miterlimit:22.9256;} .st4{fill-rule:evenodd;clip-rule:evenodd;fill:#8969AD;stroke:#1C114D;stroke-width:6.4536;stroke-miterlimit:22.9256;} .st5{fill-rule:evenodd;clip-rule:evenodd;fill:#387E68;stroke:#1C114D;stroke-width:6.4536;stroke-miterlimit:22.9256;} .st6{fill-rule:evenodd;clip-rule:evenodd;fill:#1C114D;} .st7{fill-rule:evenodd;clip-rule:evenodd;fill:#FFE4B3;stroke:#1C114D;stroke-width:6.4535;stroke-miterlimit:22.9256;} .st8{fill-rule:evenodd;clip-rule:evenodd;fill:#DBA48A;stroke:#1C114D;stroke-width:2.4197;stroke-miterlimit:22.9256;} .st9{fill-rule:evenodd;clip-rule:evenodd;fill:#B5826A;stroke:#1C114D;stroke-width:1.613;stroke-miterlimit:22.9256;} .st10{fill-rule:evenodd;clip-rule:evenodd;fill:#1C114D;stroke:#1C114D;stroke-width:3.2265;stroke-miterlimit:22.9256;} .st11{fill-rule:evenodd;clip-rule:evenodd;fill:#ECEDEF;stroke:#1C114D;stroke-width:3.2265;stroke-miterlimit:22.9256;} .st12{fill-rule:evenodd;clip-rule:evenodd;fill:#E2B2B5;stroke:#1C114D;stroke-width:0.9146;stroke-miterlimit:22.9256;} .st13{fill-rule:evenodd;clip-rule:evenodd;fill:#FFFFFF;stroke:#1C114D;stroke-width:4.8401;stroke-miterlimit:22.9256;} .st14{fill:none;stroke:#211915;stroke-width:3.2267;stroke-miterlimit:22.9256;} .st15{fill-rule:evenodd;clip-rule:evenodd;fill:#211915;} .st16{fill-rule:evenodd;clip-rule:evenodd;fill:#FFF1B3;} .st17{fill-rule:evenodd;clip-rule:evenodd;fill:#DBA48A;stroke:#1C114D;stroke-width:1.6131;stroke-miterlimit:22.9256;} .st18{fill-rule:evenodd;clip-rule:evenodd;fill:#FFFFFF;stroke:#1C114D;stroke-width:3.2265;stroke-miterlimit:22.9256;} .st19{fill-rule:evenodd;clip-rule:evenodd;fill:#FFCD3F;stroke:#1C114D;stroke-width:12.9069;stroke-miterlimit:22.9256;} .st20{fill-rule:evenodd;clip-rule:evenodd;fill:#FFF1B3;stroke:#1C114D;stroke-width:6.4534;stroke-miterlimit:22.9256;} .st21{fill-rule:evenodd;clip-rule:evenodd;fill:#1C114D;stroke:#1C114D;stroke-width:0.9148;stroke-miterlimit:22.9256;} .st22{fill-rule:evenodd;clip-rule:evenodd;fill:#FFF1B3;stroke:#1C114D;stroke-width:6.4535;stroke-miterlimit:22.9256;} .st23{fill-rule:evenodd;clip-rule:evenodd;fill:#FFCBB3;stroke:#1C114D;stroke-width:3.2266;stroke-miterlimit:22.9256;} .st24{fill-rule:evenodd;clip-rule:evenodd;fill:#DBA48A;stroke:#1C114D;stroke-width:1.613;stroke-miterlimit:22.9256;} .st25{fill-rule:evenodd;clip-rule:evenodd;fill:#B5826A;stroke:#1C114D;stroke-width:0.9147;stroke-miterlimit:22.9256;} .st26{fill-rule:evenodd;clip-rule:evenodd;fill:#FFE4B3;} .st27{fill-rule:evenodd;clip-rule:evenodd;fill:#1C114D;stroke:#211915;stroke-width:0.9147;stroke-miterlimit:22.9256;} .st28{fill-rule:evenodd;clip-rule:evenodd;fill:#FFCD3F;stroke:#1C114D;stroke-width:3.2265;stroke-miterlimit:22.9256;} .st29{fill:none;stroke:#1C114D;stroke-width:3.2265;stroke-miterlimit:22.9256;} .st30{fill-rule:evenodd;clip-rule:evenodd;fill:#BA0713;stroke:#1C114D;stroke-width:6.4537;stroke-miterlimit:22.9256;} .st31{fill-rule:evenodd;clip-rule:evenodd;fill:#33B8A6;stroke:#1C114D;stroke-width:9.6801;stroke-miterlimit:22.9256;} .st32{fill-rule:evenodd;clip-rule:evenodd;fill:#8969AD;stroke:#1C114D;stroke-width:3.2265;stroke-miterlimit:22.9256;} .st33{fill-rule:evenodd;clip-rule:evenodd;fill:#387E68;stroke:#1C114D;stroke-width:3.2265;stroke-miterlimit:22.9256;} .st34{fill-rule:evenodd;clip-rule:evenodd;fill:#33B8A6;stroke:#1C114D;stroke-width:3.2265;stroke-miterlimit:22.9256;} .st35{fill-rule:evenodd;clip-rule:evenodd;fill:#FFE4B3;stroke:#1C114D;stroke-width:3.2265;stroke-miterlimit:22.9256;} .st36{fill-rule:evenodd;clip-rule:evenodd;fill:#BA0713;stroke:#1C114D;stroke-width:9.6803;stroke-miterlimit:22.9256;} .st37{fill-rule:evenodd;clip-rule:evenodd;fill:#FFCD3F;stroke:#1C114D;stroke-width:3.2263;stroke-miterlimit:22.9256;} .st38{fill-rule:evenodd;clip-rule:evenodd;fill:#8969AD;stroke:#1C114D;stroke-width:3.227;stroke-miterlimit:22.9256;} .st39{fill-rule:evenodd;clip-rule:evenodd;fill:#E2AA00;stroke:#1C114D;stroke-width:6.4536;stroke-miterlimit:22.9256;} .st40{fill-rule:evenodd;clip-rule:evenodd;fill:#FFF1B3;stroke:#1C114D;stroke-width:6.4536;stroke-miterlimit:22.9256;} .st41{fill-rule:evenodd;clip-rule:evenodd;fill:#1C114D;stroke:#1C114D;stroke-width:1.613;stroke-miterlimit:22.9256;} .st42{fill-rule:evenodd;clip-rule:evenodd;fill:#FFFFFF;stroke:#1C114D;stroke-width:25.8143;stroke-miterlimit:22.9256;} .st43{fill-rule:evenodd;clip-rule:evenodd;fill:none;} </style> <g> <path class="st0" d="M780.42,965.04l-0.12,0.55c2.13-0.15,4.44-0.04,6.95,0.37c0.26,0.04,0.52,0.08,0.77,0.13 c0.2,0.04,0.41,0.08,0.61,0.12l0,0c12.57,2.7,14.88,16.41,16.12,29.97c5.83,36.04-9.78,72.74,49.66,92.57 c13.55,4.52,27.75,6.72,35.5,6.59c15.62-0.25,36.91-1.91,56.38,0.18l116.3-10.43l-2.84-24.39l7.09-0.83l-0.53-4.53l-2.4,0.28 c-4.84,0.56-9.27-2.94-9.83-7.78l0,0c-0.56-4.84,2.94-9.27,7.78-9.83l14.29-1.66c4.84-0.56,9.26,2.94,9.83,7.78l0,0 c0.56,4.84-2.94,9.27-7.78,9.83l-2.41,0.28l0.53,4.53l-9.27,1.08l74.74-8.7l-0.45-4.54l-2.4,0.28c-4.84,0.56-9.27-2.94-9.83-7.78 l0,0c-0.56-4.84,2.94-9.27,7.78-9.83l14.29-1.66c4.84-0.56,9.27,2.94,9.83,7.78l0,0c0.56,4.84-2.94,9.27-7.78,9.83l-2.4,0.28 l0.45,4.54l1.36-0.16c27.21-3.17,51.83,16.32,55,43.53c3.17,27.21-16.32,51.84-43.53,55l0.02,0.17l-1.29,0.15l0.51,4.4l2.4-0.28 c4.84-0.56,9.27,2.94,9.83,7.78l0,0c0.56,4.84-2.94,9.27-7.78,9.83l-14.29,1.66c-4.84,0.56-9.27-2.94-9.83-7.78l0,0 c-0.56-4.84,2.94-9.27,7.78-9.83l2.4-0.28l-0.51-4.4l-28.03,3.26l0.51,4.4l2.4-0.28c4.84-0.56,9.27,2.94,9.83,7.78l0,0 c0.56,4.84-2.94,9.27-7.78,9.83l-14.29,1.66c-4.84,0.56-9.27-2.94-9.83-7.78l0,0c-0.56-4.84,2.93-9.27,7.78-9.83l2.4-0.28 l-0.51-4.4l-28.03,3.26l0.51,4.4l2.4-0.28c4.84-0.56,9.27,2.94,9.83,7.78l0,0c0.57,4.84-2.94,9.27-7.78,9.83l-14.29,1.66 c-4.84,0.56-9.27-2.94-9.83-7.78l0,0c-0.56-4.84,2.94-9.27,7.78-9.83l2.41-0.28l-0.51-4.4l-7.09,0.82l-3.24-27.8l-63.74,9.72 c8.76,26.99,5.78,60.83-15.69,84.73l0,0c0,0-28.84,26.88-73.52,38.43c-2.42,5.95-5.05,12.22-6.25,14.83 c-27.99,61.4-74.16,71-105.71,51.72c14.52,37.55,33.05,73.78,55.5,108.7l-90.25-16.99c-15.6,39.41-53.62,67.69-98.66,68.73 c-5.73,0.13-11.37-0.18-16.88-0.91c-11.86,9.94-26.51,16.32-43.14,17.95l0.09,0.37l0.59,0.11l0.1,4.58l-91.93,2.12l-0.1-4.43h-0.01 l0-0.07l0-0.08l0.01,0c0.53-10.28,8.23-19.13,19.73-24.4c-27.59-20.41-48.83-53.06-55.38-90.19c-1.69-9.6-2.3-18.96-1.93-27.91 l-38.33-7.22c1.73-8.27,3.57-16.49,5.51-24.64c-53.44-24.31-91.95-76.7-95.57-139.39c-2.6-45.08,13.34-86.95,41.2-118.18 c-15.07-20.4-23.62-45.16-20.11-65.82c5.2-30.54,42.91-55.43,68.03-66.31c1.08-0.03,2.17-0.04,3.27-0.03 c39.5-16.79,88.63-26.27,129.75-29.92c14.45-1.59,29.4-2.08,44.58-1.65c0.71,0.02,1.41,0.04,2.11,0.06l1.5,0.05l0,0 c31.47,1.15,62.51,5.03,68.35,16.1c0,0,2.89,2.72,4.43,3.22l20.64,7.34l4.95-13.13c-198.91-99.62-309.34-312.83-252.79-515.36 c65.08-233.09,326.68-363.74,584.28-291.81c257.61,71.93,413.68,319.2,348.59,552.29c-65.09,233.09-326.68,363.74-584.29,291.81 c-19.41-5.42-38.24-11.86-56.46-19.19l-4.1,9.67L780.42,965.04L780.42,965.04z M1099.38,1033.64l14.29-1.66 c4.84-0.56,9.27,2.94,9.83,7.78l0,0c0.56,4.84-2.94,9.27-7.78,9.83l-2.4,0.28l0.53,4.53l-9.48,1.11l-0.53-4.53l-2.4,0.28 c-4.84,0.56-9.27-2.94-9.83-7.78l0,0C1091.03,1038.63,1094.53,1034.21,1099.38,1033.64L1099.38,1033.64z"/> <path class="st1" d="M813.88,977.69c1.55,5.41,2.29,11.18,2.83,16.89c1.36,8.59,1.62,16.92,1.86,25.09 c0.7,23.25,1.35,44.85,39.67,57.64c5.8,1.93,11.73,3.4,17.12,4.4c5.93,1.1,11.01,1.63,14.36,1.58c3.52-0.05,7.81-0.21,12.34-0.37 c13.62-0.48,29.36-1.03,44.43,0.48l102.67-9.21l-1.52-13.09c-2.99-3.17-5.02-7.28-5.56-11.9l-0.09-0.81v-0.23 c-0.35-5.31,1.38-10.36,4.51-14.32c3.34-4.22,8.28-7.18,14-7.85l14.29-1.66c4.27-0.5,8.42,0.36,12.01,2.24 c3.07-2.65,6.92-4.44,11.22-4.94l14.28-1.66c4.28-0.5,8.42,0.37,12.01,2.24c3.07-2.65,6.92-4.44,11.22-4.94l14.29-1.66 c5.68-0.66,11.14,1.08,15.36,4.41c4.22,3.34,7.18,8.28,7.85,14c0.2,1.76,0.18,3.5-0.05,5.19c8.7,2.13,16.76,6.13,23.67,11.59 c12.4,9.81,21.06,24.34,23.02,41.24c1.97,16.87-3.12,32.96-12.93,45.36c-5.47,6.91-12.41,12.66-20.4,16.74 c0.63,1.62,1.06,3.33,1.27,5.13c0.66,5.69-1.08,11.14-4.42,15.36c-3.34,4.23-8.28,7.18-14,7.85l-15.1,1.76h-0.23 c-3.9,0.25-7.67-0.61-10.96-2.33c-3.07,2.65-6.92,4.44-11.22,4.94l-14.29,1.66c-4.27,0.5-8.42-0.36-12.01-2.24 c-3.07,2.65-6.92,4.44-11.22,4.94l-14.29,1.66c-5.68,0.66-11.15-1.08-15.36-4.42c-4.23-3.34-7.18-8.28-7.85-14 c-0.54-4.6,0.5-9.05,2.68-12.81l-1.89-16.2l-38.26,5.83c2.24,12.31,2.39,25.35,0.03,38.09c-3.43,18.54-9.72,33.87-22.46,45.57 c-0.09,0.08-28.48,26.54-72.78,39.59l-1.46,3.48c-1.15,2.72-2.12,4.99-2.73,6.32c-3.05,6.68-6.26,12.74-9.61,18.22 c-14.56,23.82-32.33,38.2-50.55,44.93c-11.79,4.36-23.72,5.49-35.07,3.88c4.4,9.96,9.08,19.81,14.05,29.53 c8.99,17.6,19.05,35.04,30.16,52.32l15.16,23.57l-108.41-20.41c-9.08,18.29-22.66,33.99-39.33,45.6 c-18.78,13.09-41.55,20.98-66.25,21.55c-3.24,0.08-6.35,0.03-9.31-0.13c-1.39-0.08-2.79-0.18-4.19-0.3 c-5.85,4.35-12.22,7.99-19.07,10.84c-4.7,1.96-9.62,3.53-14.74,4.69l0.15,6.73l-116.04,2.68l-0.1-4.66h-0.97l0.69-12.57l-0.19-8.75 l1.89-0.54c1.4-4.24,3.62-8.21,6.53-11.8c1.11-1.37,2.31-2.68,3.62-3.94c-10.06-9.38-19.02-20.34-26.47-32.46 c-10.07-16.41-17.38-34.97-20.86-54.7c-0.9-5.09-1.52-10.21-1.87-15.34c-0.11-1.55-0.19-3.1-0.24-4.65l-40.58-7.64l2.52-12.04 c0.72-3.43,1.63-7.6,2.72-12.51l0.68-3.04c-25.34-13.32-47.15-32.71-63.37-56.37c-17.46-25.47-28.42-55.89-30.33-89 c-1.37-23.71,2.06-46.61,9.44-67.77c6.61-18.96,16.37-36.47,28.67-51.86c-5.93-9.37-10.62-19.38-13.69-29.43 c-3.9-12.77-5.21-25.67-3.18-37.58c2.71-15.94,12.26-30.18,24.56-42.17c15.29-14.9,35.17-26.53,50.61-33.22l2.13-0.92l2.31-0.07 l1.1-0.02c18.53-7.69,38.93-13.84,59.56-18.6c24.5-5.65,49.28-9.35,71.64-11.33l0,0.02c7.15-0.78,14.59-1.31,22.27-1.59 c7.78-0.29,15.68-0.31,23.67-0.08c5.13,0.14,10.25,0.35,15.38,0.53v0.15c8.02,0.49,15.85,1.19,23.12,2.19 C582.96,856,524.11,788.65,486.85,712.68c-45.63-93.03-58.94-198.92-30.11-302.17c33.51-120.03,117.5-213.62,226.19-267.9 c107.8-53.84,239.98-68.99,371.21-32.8h1.26l1.58,0.79c131.3,36.95,236.76,118.5,301.2,220.59 c64.53,102.24,87.97,225.07,55.18,344.48v0.05l-0.47,1.69c-33.51,120.03-117.5,213.62-226.19,267.9 c-107.81,53.84-239.98,68.99-371.21,32.8h-0.04L813.88,977.69L813.88,977.69z"/> <path class="st2" d="M984.9,1110.08c26.45,25.01,34.51,81.07,3.17,115.96l0,0c0,0-88.54,82.56-195.67,20.5 c-85.95-49.79-56.92-186.68-42.08-238.87c5.37-18.88,10.61-46.41,37.19-41.58c13.1,2.38,14.52,16.43,16.73,30.09 c5.83,36.04-9.79,72.74,49.66,92.57c13.55,4.52,27.75,6.72,35.5,6.59C917.38,1094.89,963.57,1089.91,984.9,1110.08L984.9,1110.08z"/> <path class="st3" d="M843.91,1339.2c-115.33,18.24-140.91-276.05-79.26-366.19c3.57-5.22,13.91-8.55,22.86-6.92 c13.1,2.38,15.47,16.31,16.73,30.09c3.2,34.87-6.43,73.22,44.6,90.77C796.3,1087.84,781.91,1362.97,843.91,1339.2L843.91,1339.2z"/> <path class="st4" d="M843.91,1339.2c-43.89,6.94-74.77-31.39-92.8-86.49c-3.24-56.28,20.1-171.09,73.48-178.87 c5.98,5.1,13.86,9.53,24.25,13.1C796.3,1087.84,781.91,1362.97,843.91,1339.2L843.91,1339.2z"/> <path class="st5" d="M914.26,1264.55c-15.49,43.65-44.03,73.82-72.53,75.34c0.72-0.2,1.44-0.4,2.18-0.69 c-2.19,0.35-4.34,0.58-6.46,0.7c-1.87-0.09-3.74-0.31-5.61-0.66c-1.17-0.22-2.32-0.49-3.45-0.81 c-15.75-9.03-23.64-44.46-25.04-86.01C845,1273.06,883.39,1272.48,914.26,1264.55L914.26,1264.55z"/> <path class="st6" d="M1052.14,121.92c257.61,71.93,413.68,319.2,348.59,552.3c-65.08,233.09-326.68,363.74-584.28,291.81 c-257.61-71.93-413.68-319.2-348.59-552.29C532.94,180.63,794.53,49.99,1052.14,121.92L1052.14,121.92z"/> <path class="st7" d="M671.81,641.63c-17.15-16.06-39.62-14.04-50.19,4.53c-10.56,18.56-5.22,46.63,11.93,62.69 c17.15,16.06,39.62,14.03,50.19-4.53C694.3,685.76,688.96,657.69,671.81,641.63L671.81,641.63z"/> <path class="st8" d="M660.55,653.11c-11.13-10.42-25.72-9.11-32.57,2.94c-6.86,12.05-3.39,30.26,7.74,40.69 c11.13,10.42,25.72,9.11,32.57-2.94C675.15,681.75,671.68,663.53,660.55,653.11L660.55,653.11z"/> <path class="st9" d="M660.55,653.11c-1.66-1.55-3.4-2.84-5.17-3.88c-7.82-0.13-15.09,3.83-19.56,11.68 c-5.95,10.46-5.27,24.88,0.79,36.62c11.01,9.55,25.01,8,31.69-3.73C675.15,681.75,671.68,663.53,660.55,653.11L660.55,653.11z"/> <path class="st2" d="M941.7,489.58c106.17,29.65,172.25,125.26,147.59,213.56c-4.01,14.38-10.2,27.67-18.18,39.73 c-0.05,0.08-0.1,0.16-0.15,0.25l-84.24,137.14c-43.6,70.99-121.64,78.37-183.99,49.11c-25.96-12.18-32.77-1.94-35.71,3.7 l-12.02,23.53l-39.07-15.17l9.27-24.26c10.2-22.54-9.65-24.54-47.46-46.46c-59.58-34.54-67.11-99.66-35.41-160.8l72.92-140.68 c0.08-0.16,0.17-0.31,0.25-0.47c0.27-0.52,0.55-1.04,0.83-1.56c0.2-0.36,0.39-0.73,0.59-1.08 C754.68,497.28,848.14,463.45,941.7,489.58L941.7,489.58z"/> <path class="st10" d="M723.86,602.87c6.26,103.78,141.29,141.96,295.23,119.38c-27.36,55.21-56.09,101.8-87.54,132.32 c-69.21,67.16-202.49,22.19-241.19-30.14C670.66,782.76,694.24,682.2,723.86,602.87L723.86,602.87z"/> <path class="st11" d="M689.77,797.26c0,0,13.47-15.4,25.06-17.16c11.6-1.76,22.61,8.54,24.55,13.52 c1.94,4.99,4.45,36.79,2.61,37.39C740.17,831.6,689.77,797.26,689.77,797.26L689.77,797.26z"/> <path class="st12" d="M834.69,800.86c32.36-8.1,63.09,3.28,68.63,25.42c5.54,22.14-16.2,46.66-48.56,54.76 c-32.36,8.1-63.08-3.28-68.63-25.42C780.59,833.47,802.33,808.96,834.69,800.86L834.69,800.86z"/> <path class="st11" d="M946.93,838.15c-5.06,5.89-10.18,11.38-15.38,16.43c-3.42,3.32-7,6.35-10.71,9.13l-13.18-5 c0,0-4.49-13.73,3.5-20c7.99-6.26,26.78-13.32,34.78-2.25C946.33,836.99,946.66,837.56,946.93,838.15L946.93,838.15z"/> <path class="st13" d="M732.91,640.7c30.35,68.2,131.73,96,250.26,85.75c-0.29,5.17,5.48-13.33-2.55,15.41 c-8.03,28.74-101.19,69.5-173.7,49.25c-72.51-20.25-97.63-91.19-88.87-122.57C726.82,637.17,726.05,648.85,732.91,640.7 L732.91,640.7z"/> <path class="st14" d="M950.11,608.77c23.47,6.55,37.18,30.89,30.63,54.35c-6.55,23.47-30.89,37.18-54.36,30.63 c-23.47-6.55-37.18-30.89-30.63-54.35C902.31,615.93,926.64,602.22,950.11,608.77L950.11,608.77z M805.31,546.16 c23.47,6.55,37.18,30.89,30.63,54.35c-6.55,23.47-30.89,37.18-54.35,30.63c-23.47-6.55-37.18-30.89-30.63-54.36 C757.51,553.32,781.85,539.61,805.31,546.16L805.31,546.16z"/> <path class="st15" d="M948.7,610.03c11.28,3.15,17.87,14.85,14.72,26.13c-3.15,11.28-14.85,17.87-26.13,14.72 c-11.28-3.15-17.87-14.85-14.72-26.13C925.72,613.47,937.42,606.88,948.7,610.03L948.7,610.03z"/> <path class="st15" d="M803.9,547.42c11.28,3.15,17.87,14.85,14.72,26.13c-3.15,11.28-14.85,17.87-26.13,14.72 c-11.28-3.15-17.87-14.85-14.72-26.13C780.92,550.86,792.62,544.27,803.9,547.42L803.9,547.42z"/> <path class="st0" d="M963.07,627.9c5.64,1.58,8.93,7.42,7.36,13.06c-1.57,5.64-7.42,8.93-13.06,7.36 c-5.64-1.58-8.94-7.42-7.36-13.06C951.58,629.62,957.43,626.32,963.07,627.9L963.07,627.9z"/> <path class="st0" d="M818.27,565.29c5.64,1.58,8.93,7.42,7.36,13.06c-1.58,5.64-7.42,8.94-13.06,7.36 c-5.64-1.57-8.93-7.42-7.36-13.06C806.78,567.01,812.63,563.71,818.27,565.29L818.27,565.29z"/> <path class="st16" d="M798.85,422.9l87.79,23.64l9.14-30.57C897.33,410.76,835.41,401.47,798.85,422.9L798.85,422.9z"/> <path class="st6" d="M1038.29,750.95c30.55-50.58,66.69-83.72,80.73-74.02c14.04,9.7,0.65,58.57-29.9,109.15 c-30.55,50.58-66.69,83.72-80.73,74.02C994.36,850.4,1007.74,801.53,1038.29,750.95L1038.29,750.95z"/> <path class="st7" d="M1042.43,811.23c23.48,0.87,37.87,18.26,32.12,38.83c-5.74,20.57-29.44,36.54-52.92,35.67 c-23.48-0.87-37.86-18.26-32.12-38.83C995.25,826.33,1018.95,810.36,1042.43,811.23L1042.43,811.23z"/> <path class="st17" d="M1042.21,827.31c15.24,0.57,24.57,11.85,20.85,25.2c-3.73,13.35-19.11,23.71-34.35,23.15 c-15.24-0.57-24.57-11.85-20.84-25.2C1011.59,837.11,1026.97,826.75,1042.21,827.31L1042.21,827.31z"/> <path class="st9" d="M1042.21,827.31c2.27,0.08,4.41,0.41,6.4,0.94c5.59,5.46,7.9,13.41,5.47,22.12 c-3.24,11.59-13.96,21.26-26.56,25.22c-14.54-1.09-23.29-12.13-19.66-25.13C1011.59,837.11,1026.97,826.75,1042.21,827.31 L1042.21,827.31z"/> <path class="st18" d="M924.37,859.82c-71.08,56.26-195.59,12.8-232.77-37.49c-3.43-7.25-5.54-16.29-6.55-26.68 c9.37-4.29,20.42-8.68,24.76-7.82c8.13,1.61,14.4,34.75,83.31,48.99c68.91,14.24,88.53,4.27,110.81,7.19 C912.39,845.12,919.19,851.88,924.37,859.82L924.37,859.82z"/> <path class="st19" d="M1007.95,525.55c69.28,19.35,109.77,91.19,90.42,160.48c-19.35,69.29-91.19,109.77-160.48,90.42 c-69.29-19.35-109.77-91.19-90.42-160.48C866.82,546.69,938.67,506.21,1007.95,525.55L1007.95,525.55z"/> <path class="st20" d="M991.32,544.82c50.62,14.14,80.2,66.63,66.07,117.25c-14.13,50.62-66.63,80.2-117.25,66.07 c-50.62-14.14-80.2-66.63-66.07-117.25C888.2,560.27,940.69,530.69,991.32,544.82L991.32,544.82z"/> <path class="st21" d="M993.59,555.11c47.44,13.24,75.15,62.44,61.91,109.87c-13.25,47.43-62.44,75.15-109.87,61.91 c-47.44-13.25-75.15-62.44-61.91-109.87C896.97,569.58,946.16,541.86,993.59,555.11L993.59,555.11z"/> <path class="st4" d="M1026.7,572.46c26.12,21.79,38.54,57.63,28.8,92.52c-2.15,7.68-5.24,14.85-9.11,21.41 c-8.78,4.88-18.89,7.65-29.65,7.65c-33.8,0-61.2-27.4-61.2-61.19c0-33.8,27.4-61.19,61.2-61.19 C1020.13,571.65,1023.45,571.93,1026.7,572.46L1026.7,572.46z"/> <path class="st19" d="M773.48,443.37c61.25,17.1,97.04,80.62,79.94,141.87c-17.1,61.25-80.62,97.04-141.87,79.94 c-61.25-17.1-97.04-80.62-79.94-141.87C648.71,462.06,712.23,426.27,773.48,443.37L773.48,443.37z"/> <path class="st22" d="M758.77,460.41c44.75,12.5,70.9,58.91,58.4,103.66c-12.5,44.75-58.9,70.9-103.66,58.41 c-44.75-12.5-70.9-58.9-58.4-103.66C667.61,474.06,714.02,447.91,758.77,460.41L758.77,460.41z"/> <path class="st21" d="M760.78,469.5c41.94,11.71,66.44,55.2,54.73,97.13c-11.71,41.94-55.2,66.44-97.13,54.73 c-41.94-11.71-66.44-55.2-54.73-97.13C675.36,482.29,718.85,457.79,760.78,469.5L760.78,469.5z"/> <path class="st4" d="M782.27,479.13c28.31,18.22,42.77,53.37,33.24,87.5c-5.29,18.93-17.05,34.31-32.22,44.41 c-34.91-1.77-62.67-30.64-62.67-65.99C720.62,510.05,747.84,481.41,782.27,479.13L782.27,479.13z"/> <path class="st23" d="M812.98,610.68c15.41-0.2,28.09,14.28,28.33,32.34c0.24,18.06-12.06,32.87-27.47,33.07 c-15.41,0.2-28.09-14.28-28.33-32.34C785.27,625.69,797.57,610.89,812.98,610.68L812.98,610.68z"/> <path class="st24" d="M790.18,661.4c-2.88-5.07-4.59-11.12-4.67-17.65c-0.01-1.05,0.02-2.1,0.09-3.13 c2.71-0.95,5.62-0.78,8.03,0.72c4.63,2.89,5.64,9.63,2.25,15.05C794.42,658.73,792.39,660.44,790.18,661.4L790.18,661.4z"/> <path class="st17" d="M821.07,649.01c5.46-0.07,9.95,5.05,10.03,11.45c0.08,6.39-4.27,11.64-9.73,11.71 c-5.45,0.07-9.94-5.05-10.03-11.45C811.26,654.32,815.62,649.08,821.07,649.01L821.07,649.01z"/> <path class="st25" d="M821.07,649.01c5.06-0.07,9.29,4.34,9.94,10.09c-1.6,3.72-4.87,6.28-8.68,6.33 c-5.06,0.07-9.29-4.34-9.94-10.08C814,651.63,817.26,649.06,821.07,649.01L821.07,649.01z"/> <path class="st25" d="M793.62,641.34c-1.18-0.73-2.47-1.15-3.81-1.27c-0.09,0.13-0.18,0.27-0.26,0.4 c-3.38,5.43-2.38,12.16,2.25,15.05c1.18,0.73,2.47,1.15,3.81,1.27c0.09-0.13,0.17-0.27,0.26-0.4 C799.26,650.97,798.25,644.23,793.62,641.34L793.62,641.34z"/> <path class="st16" d="M1087.84,505.57l-117.08-85.52l28.88-41.9C1004.56,371,1077.96,438.71,1087.84,505.57L1087.84,505.57z"/> <path class="st26" d="M994.45,827.59c5.52,1.54,7.06,13.27,3.45,26.2c-3.61,12.93-11.01,22.16-16.53,20.63 c-5.52-1.54-7.06-13.27-3.45-26.21C981.53,835.28,988.93,826.05,994.45,827.59L994.45,827.59z"/> <path class="st6" d="M998.81,828.06c1.9,0.53,3.01,2.5,2.47,4.39c-0.53,1.9-2.49,3-4.39,2.48c-1.9-0.53-3-2.5-2.47-4.39 C994.95,828.64,996.91,827.53,998.81,828.06L998.81,828.06z"/> <path class="st27" d="M517.91,1511.25c0.76-17.25,21.73-30.52,46.99-29.68c22.69,0.76,41.17,12.64,44.41,27.57L517.91,1511.25 L517.91,1511.25z"/> <path class="st28" d="M517.91,1511.25c0.48-10.87,8.98-20.15,21.53-25.33c10.07,5.03,18.3,13.7,23.23,24.3L517.91,1511.25 L517.91,1511.25z"/> <polygon class="st29" points="517.91,1511.25 609.84,1509.13 609.94,1513.56 518.01,1515.68 517.91,1511.25 "/> <path class="st30" d="M562.19,1279.5c55.31-1.28,109.21,49.04,120.39,112.38c11.18,63.35-24.6,115.73-79.92,117.01 c-55.31,1.28-109.21-49.04-120.39-112.38C471.1,1333.17,506.88,1280.78,562.19,1279.5L562.19,1279.5z"/> <path class="st31" d="M779.9,965.04c-37.73,179.44-10.23,337.19,78.2,474.68l-208.04-39.17l-208.04-39.17 c35.17-168.06,114.27-312.98,253.04-426.5L779.9,965.04L779.9,965.04z"/> <path class="st32" d="M779.9,965.04c-6.67,31.73-11.29,62.79-13.91,93.17l-2.56,5.93c-11.86,27.45-44.02,40.21-71.47,28.36 l-40.5-17.49c-27.45-11.86-40.21-44.02-28.36-71.47l1.17-2.71c21.63-23.02,45.18-45.02,70.77-65.95L779.9,965.04L779.9,965.04z"/> <path class="st33" d="M779.9,965.04c-2.79,13.27-5.22,26.41-7.3,39.44l-13.17,30.48c-9.42,21.82-34.99,31.96-56.8,22.54 l-32.19-13.9c-21.82-9.43-31.96-34.99-22.54-56.81l7.33-16.97c12.69-11.96,25.95-23.61,39.81-34.95L779.9,965.04L779.9,965.04z"/> <path class="st34" d="M695.17,934.92l83.72,29.76c-9.8,7.75-25.88,11.16-42.93,7.95C711.51,968.03,693.89,951.48,695.17,934.92 L695.17,934.92z"/> <path class="st35" d="M707.76,939.4l56.35,20.03c-7.46,3.08-16.38,4.08-25.58,2.35C724.03,959.04,712.59,950.2,707.76,939.4 L707.76,939.4z"/> <path class="st36" d="M664.16,1273.98c60.05-1.39,109.86,46.17,111.25,106.23c1.39,60.05-46.17,109.86-106.23,111.25 c-60.05,1.39-109.86-46.17-111.25-106.23C556.55,1325.18,604.11,1275.37,664.16,1273.98L664.16,1273.98z"/> <path class="st10" d="M636.12,1313.08c16.77,4.56,24.96,28.12,18.3,52.62c-6.66,24.5-25.65,40.68-42.42,36.12 c-16.77-4.56-24.96-28.12-18.3-52.62C600.36,1324.69,619.35,1308.53,636.12,1313.08L636.12,1313.08z"/> <path class="st37" d="M657.12,1348.17c-1.01,9.33-6.72,12.65-9.34,12.67c3.37-21.28-3.66-40.07-17.26-43.77 c-9.63-2.62-20.25,2.96-28.42,13.55C625.28,1298.22,658.94,1313.33,657.12,1348.17L657.12,1348.17z"/> <path class="st38" d="M630.75,1316.13c14.7,4,21.63,25.58,15.48,48.21c-6.15,22.63-23.05,37.73-37.76,33.74 c-14.7-4-21.63-25.58-15.48-48.21C599.14,1327.23,616.04,1312.13,630.75,1316.13L630.75,1316.13z"/> <path class="st6" d="M628.91,1322.86c12.28,3.34,18.08,21.38,12.94,40.28c-5.14,18.91-19.26,31.53-31.55,28.19 c-12.28-3.34-18.08-21.38-12.94-40.29C602.5,1332.14,616.63,1319.52,628.91,1322.86L628.91,1322.86z"/> <polygon class="st26" points="715.82,947.9 721.37,936.19 755.63,948.31 749.58,960.54 715.82,947.9 "/> <path class="st39" d="M505.67,1024.82c53.55-3.09,102.57,19.98,134.61,58.13c14.69-12.12,33.22-19.85,53.69-21.03 c51.19-2.95,95.08,36.16,98.04,87.35c2.95,51.19-36.15,95.08-87.35,98.04c-12.43,0.71-24.42-1.05-35.5-4.86 c-21.3,60.14-76.98,104.72-144.67,108.63c-90.09,5.2-167.33-63.63-172.53-153.71C346.76,1107.25,415.58,1030.01,505.67,1024.82 L505.67,1024.82z"/> <path class="st6" d="M679.56,1113.31c23.15-1.33,43,16.35,44.33,39.5c1.33,23.15-16.35,43-39.5,44.33 c-23.15,1.34-43-16.35-44.33-39.5C638.73,1134.49,656.41,1114.64,679.56,1113.31L679.56,1113.31z"/> <path class="st40" d="M700.45,1117.51l389.61-34.93l5.58,44.73l-385.12,58.71c8.86-8.22,14.12-20.2,13.37-33.21 C722.99,1137.14,713.6,1123.97,700.45,1117.51L700.45,1117.51z"/> <path class="st39" d="M1152.12,1049.88c27.21-3.17,51.83,16.32,55,43.53c3.17,27.21-16.32,51.84-43.53,55l0.02,0.17l-92.88,10.81 l-11.49-98.7L1152.12,1049.88L1152.12,1049.88z"/> <path class="st41" d="M1098.58,1081.59l66.09-7.69c4.69-0.55,8.96,2.84,9.51,7.52l0,0c0.55,4.68-2.84,8.96-7.52,9.51l-66.09,7.7 c-4.68,0.54-8.96-2.84-9.51-7.52v0C1090.5,1086.42,1093.89,1082.14,1098.58,1081.59L1098.58,1081.59z"/> <path class="st41" d="M1101.76,1108.91l66.09-7.69c4.68-0.54,8.96,2.84,9.51,7.52v0c0.54,4.69-2.84,8.96-7.53,9.51l-66.09,7.69 c-4.68,0.55-8.96-2.84-9.51-7.52l0,0C1093.69,1113.74,1097.07,1109.46,1101.76,1108.91L1101.76,1108.91z"/> <path class="st16" d="M1061.35,1038.01l14.29-1.66c4.84-0.56,9.27,2.94,9.83,7.78l0,0c0.56,4.84-2.94,9.27-7.78,9.83l-2.4,0.28 l0.53,4.53l-9.48,1.1l-0.53-4.53l-2.4,0.28c-4.84,0.56-9.27-2.94-9.83-7.78l0,0C1053.01,1042.99,1056.5,1038.57,1061.35,1038.01 L1061.35,1038.01z"/> <path class="st16" d="M1098.86,1033.64l14.29-1.66c4.84-0.56,9.26,2.94,9.83,7.78l0,0c0.57,4.84-2.94,9.27-7.78,9.83l-2.4,0.28 l0.53,4.53l-9.48,1.11l-0.53-4.53l-2.4,0.28c-4.84,0.56-9.27-2.94-9.83-7.78l0,0C1090.52,1038.63,1094.02,1034.21,1098.86,1033.64 L1098.86,1033.64z"/> <path class="st16" d="M1136.38,1029.27l14.29-1.66c4.84-0.56,9.27,2.94,9.83,7.78l0,0c0.57,4.84-2.94,9.27-7.78,9.83l-2.4,0.28 l0.53,4.53l-9.48,1.1l-0.53-4.53l-2.4,0.28c-4.84,0.56-9.27-2.94-9.83-7.78l0,0C1128.03,1034.26,1131.53,1029.84,1136.38,1029.27 L1136.38,1029.27z"/> <path class="st16" d="M1077.98,1180.86l14.29-1.66c4.84-0.56,8.34-4.99,7.78-9.83l0,0c-0.56-4.84-4.99-8.34-9.83-7.78l-2.4,0.28 l-0.53-4.54l-9.48,1.11l0.53,4.53l-2.4,0.28c-4.84,0.56-8.34,4.99-7.78,9.83l0,0C1068.71,1177.93,1073.13,1181.43,1077.98,1180.86 L1077.98,1180.86z"/> <path class="st16" d="M1115.49,1176.5l14.29-1.66c4.84-0.56,8.34-4.99,7.78-9.83l0,0c-0.56-4.84-4.99-8.35-9.83-7.78l-2.4,0.28 l-0.53-4.53l-9.48,1.1l0.53,4.53l-2.4,0.28c-4.84,0.56-8.34,4.99-7.78,9.83l0,0C1106.23,1173.56,1110.65,1177.06,1115.49,1176.5 L1115.49,1176.5z"/> <path class="st16" d="M1153,1172.13l14.29-1.66c4.84-0.56,8.34-4.99,7.78-9.83l0,0c-0.56-4.84-4.99-8.34-9.83-7.78l-2.4,0.28 l-0.53-4.53l-9.48,1.11l0.53,4.53l-2.4,0.28c-4.84,0.56-8.34,4.99-7.78,9.83l0,0C1143.74,1169.19,1148.16,1172.69,1153,1172.13 L1153,1172.13z"/> <path class="st2" d="M587.62,1130.54c11.23,3.92,32.81,11.56,39.25,14.45c8.84,3.97,6.65,16.51-6.72,26.24 c-13.37,9.73-27.02,5.93-27.02,5.93l0-0.01c-0.1,0.62-0.21,1.25-0.33,1.87c-0.46,2.41-1.01,4.79-1.66,7.11 c1.04,5.66,16.49,2.04,25.18,5.59c12.08,4.92,2.02,20.39-4.19,25.77c-9.77,8.47-24.52,13.13-36.61,14.96 c4.95,9.35-9.89,17.05-17.43,18.63c-6.34,1.33-13.31,1.21-20.13,0.23c0.75,9.47-14.73,12.42-22.13,11.83 c-67.52-5.38-104.79-110.51-102.74-162.53c1.71-43.43,16.24-88.68,43.28-124.48c36.11-47.82,98.13-62.87,164.39-60.62 c31.98,1.08,64.06,5.82,69.99,17.06l-91.76,90.57c-26.81,13.26-46.53,32.04-31,70.57C577.59,1101.36,585.9,1114.94,587.62,1130.54 L587.62,1130.54z"/> <path class="st5" d="M413.12,1100.31c-42.97-35.27-64.19-108.41-1.77-125.54c17.1-4.69,33.46-3.3,46.34-0.33 c-0.44,0.56-0.87,1.11-1.3,1.68c-26.97,35.71-41.48,80.83-43.25,124.16L413.12,1100.31L413.12,1100.31z"/> <path class="st3" d="M383.05,991.24c38.95-57.2,172.41-77.96,237.73-75.74c31.98,1.08,64.06,5.82,69.99,17.06l-91.76,90.57 c-10.95,5.42-20.72,11.77-27.39,20C557.21,1029.49,458.76,957.11,383.05,991.24L383.05,991.24z"/> <path class="st4" d="M382.01,991.45c12.23-17.97,33.22-33.21,59.06-44.41c52.74-1.54,127.92,44.17,137.92,90.7 c-2.39,2.09-4.58,4.3-6.5,6.68C558.08,1030.77,457.73,957.32,382.01,991.45L382.01,991.45z"/> <path class="st7" d="M887.43,1154.87c0,0-1.19-35.87,3.76-39.99c8.76-4.08,17.11,16.88,18.41,32.78c0.12,0.56,0.09,0.37,0.11-0.08 c4.14-13.52,2.34-34.01,7.63-40.16c5.26-6.11,17.71,10.66,18.54,42.78c0.24,1.58,0.77,1.59,0.65-0.08 c-1.85-25.75,0.9-43.48,8.52-45.83c6.06-1.87,17.13,18.02,18.41,45.4c0.81,6.69,0.19-42.55,9.88-41.2 c11.55,1.61,21.94,37.61,22.82,48.49c2.52,31.12-7.96,35.77-13.09,38.86c-5.14,3.09-112.95,2.61-112.95,2.61 s-5.36-15.96,5.17-26.13C885.82,1162.12,887.43,1154.87,887.43,1154.87L887.43,1154.87z"/> <path class="st26" d="M873.38,1206.19l-0.92-12.57l119.93-16.18c0,0-0.75,11.86-5.19,19.85 C982.75,1205.27,873.38,1206.19,873.38,1206.19L873.38,1206.19z"/> <path class="st42" d="M315.72,205.43C433.36,194.14,537.89,280.35,549.18,398c4.71,49.09-7.57,95.89-32.01,134.59l8.93,25.75 l12.24,35.31l-36.7-7.06l-26.81-5.15c-32.22,27.46-72.88,45.67-118.22,50.02c-117.65,11.29-222.17-74.92-233.46-192.57 C111.86,321.25,198.07,216.72,315.72,205.43L315.72,205.43z"/> <path class="st4" d="M926.81,649.34c15.59,0,28.23,12.64,28.23,28.23c0,15.59-12.64,28.23-28.23,28.23 c-15.59,0-28.23-12.64-28.23-28.23C898.58,661.98,911.22,649.34,926.81,649.34L926.81,649.34z"/> <path class="st4" d="M695.14,561.92c8.46,0,15.32,6.86,15.32,15.32c0,8.46-6.86,15.32-15.32,15.32c-8.46,0-15.32-6.86-15.32-15.32 C679.82,568.78,686.68,561.92,695.14,561.92L695.14,561.92z"/> </g> <rect x="233.07" y="233.07" class="st43" width="1133.86" height="1133.86"/> </svg>